<svg width="512" height="512" viewBox="0 0 512 512" fill="none" xmlns="http://www.w3.org/2000/svg">
  <defs>
    <linearGradient id="grad" x1="80" y1="64" x2="430" y2="448" gradientUnits="userSpaceOnUse">
      <stop offset="0" stop-color="#06B6D4"/>
      <stop offset="0.45" stop-color="#2F81F7"/>
      <stop offset="1" stop-color="#7C3AED"/>
    </linearGradient>
    <linearGradient id="grad2" x1="120" y1="104" x2="402" y2="390" gradientUnits="userSpaceOnUse">
      <stop offset="0" stop-color="#3B82F6"/>
      <stop offset="1" stop-color="#A855F7"/>
    </linearGradient>
    <filter id="softGlow" x="-20%" y="-20%" width="140%" height="140%">
      <feGaussianBlur stdDeviation="5" result="blur"/>
      <feColorMatrix in="blur" type="matrix" values="0 0 0 0 0.19 0 0 0 0 0.51 0 0 0 0 1 0 0 0 0.35 0"/>
      <feMerge>
        <feMergeNode/>
        <feMergeNode in="SourceGraphic"/>
      </feMerge>
    </filter>
  </defs>

  <rect x="24" y="24" width="464" height="464" rx="110" fill="#0D1117"/>
  <rect x="26" y="26" width="460" height="460" rx="108" stroke="url(#grad)" stroke-width="4" opacity="0.55"/>

  <!-- Git graph -->
  <path d="M159 176 L250 246 L159 336" stroke="url(#grad)" stroke-width="22" stroke-linecap="round" stroke-linejoin="round" filter="url(#softGlow)"/>
  <circle cx="159" cy="176" r="35" fill="#0D1117" stroke="url(#grad)" stroke-width="18"/>
  <circle cx="250" cy="246" r="35" fill="#0D1117" stroke="url(#grad)" stroke-width="18"/>
  <circle cx="159" cy="336" r="35" fill="#0D1117" stroke="url(#grad)" stroke-width="18"/>

  <!-- Log document -->
  <rect x="282" y="146" width="122" height="194" rx="28" fill="#111827" stroke="url(#grad2)" stroke-width="18"/>
  <path d="M361 146 L404 188 L404 193 L361 193 Z" fill="#0D1117" stroke="url(#grad2)" stroke-width="14" stroke-linejoin="round"/>
  <path d="M319 231 H368" stroke="#E5E7EB" stroke-width="16" stroke-linecap="round"/>
  <path d="M319 274 H376" stroke="#60A5FA" stroke-width="16" stroke-linecap="round"/>
  <path d="M319 317 H353" stroke="#A78BFA" stroke-width="16" stroke-linecap="round"/>

  <!-- AI sparkle -->
  <path d="M382 94 L394 123 L423 135 L394 147 L382 176 L370 147 L341 135 L370 123 Z" fill="url(#grad)" opacity="0.95"/>
  <path d="M310 81 L318 99 L336 107 L318 115 L310 133 L302 115 L284 107 L302 99 Z" fill="#60A5FA" opacity="0.9"/>

  <!-- Code brackets -->
  <path d="M96 255 L66 285 L96 315" stroke="#2F81F7" stroke-width="18" stroke-linecap="round" stroke-linejoin="round"/>
  <path d="M437 255 L467 285 L437 315" stroke="#7C3AED" stroke-width="18" stroke-linecap="round" stroke-linejoin="round"/>
</svg>