<svg width="1600" height="520" viewBox="0 0 1600 520" fill="none" xmlns="http://www.w3.org/2000/svg">
  <defs>
    <linearGradient id="grad" x1="58" y1="86" x2="430" y2="432" gradientUnits="userSpaceOnUse">
      <stop offset="0" stop-color="#06B6D4"/>
      <stop offset="0.42" stop-color="#2F81F7"/>
      <stop offset="1" stop-color="#7C3AED"/>
    </linearGradient>
    <linearGradient id="textGrad" x1="585" y1="150" x2="1050" y2="250" gradientUnits="userSpaceOnUse">
      <stop offset="0" stop-color="#38BDF8"/>
      <stop offset="0.5" stop-color="#3B82F6"/>
      <stop offset="1" stop-color="#A855F7"/>
    </linearGradient>
    <filter id="softGlow" x="-20%" y="-20%" width="140%" height="140%">
      <feGaussianBlur stdDeviation="5" result="blur"/>
      <feColorMatrix in="blur" type="matrix" values="0 0 0 0 0.19 0 0 0 0 0.51 0 0 0 0 1 0 0 0 0.35 0"/>
      <feMerge>
        <feMergeNode/>
        <feMergeNode in="SourceGraphic"/>
      </feMerge>
    </filter>
  </defs>

  <rect width="1600" height="520" rx="64" fill="#FFFFFF"/>
  <rect x="18" y="18" width="1564" height="484" rx="52" stroke="#D0D7DE" stroke-width="3"/>

  <g transform="translate(54,46) scale(0.84)">
    <rect x="24" y="24" width="464" height="464" rx="110" fill="#0D1117"/>
    <rect x="26" y="26" width="460" height="460" rx="108" stroke="url(#grad)" stroke-width="4" opacity="0.55"/>
    <path d="M159 176 L250 246 L159 336" stroke="url(#grad)" stroke-width="22" stroke-linecap="round" stroke-linejoin="round" filter="url(#softGlow)"/>
    <circle cx="159" cy="176" r="35" fill="#0D1117" stroke="url(#grad)" stroke-width="18"/>
    <circle cx="250" cy="246" r="35" fill="#0D1117" stroke="url(#grad)" stroke-width="18"/>
    <circle cx="159" cy="336" r="35" fill="#0D1117" stroke="url(#grad)" stroke-width="18"/>
    <rect x="282" y="146" width="122" height="194" rx="28" fill="#111827" stroke="url(#grad)" stroke-width="18"/>
    <path d="M361 146 L404 188 L404 193 L361 193 Z" fill="#0D1117" stroke="url(#grad)" stroke-width="14" stroke-linejoin="round"/>
    <path d="M319 231 H368" stroke="#E5E7EB" stroke-width="16" stroke-linecap="round"/>
    <path d="M319 274 H376" stroke="#60A5FA" stroke-width="16" stroke-linecap="round"/>
    <path d="M319 317 H353" stroke="#A78BFA" stroke-width="16" stroke-linecap="round"/>
    <path d="M382 94 L394 123 L423 135 L394 147 L382 176 L370 147 L341 135 L370 123 Z" fill="url(#grad)" opacity="0.95"/>
    <path d="M310 81 L318 99 L336 107 L318 115 L310 133 L302 115 L284 107 L302 99 Z" fill="#60A5FA" opacity="0.9"/>
  </g>

  <text x="510" y="210" font-family="Inter, Segoe UI, Arial, sans-serif" font-size="96" font-weight="800" letter-spacing="-2" fill="#0F172A">DevLog</text>
  <text x="900" y="210" font-family="Inter, Segoe UI, Arial, sans-serif" font-size="96" font-weight="800" letter-spacing="-2" fill="url(#textGrad)">AI</text>

  <text x="512" y="278" font-family="Inter, Segoe UI, Arial, sans-serif" font-size="34" font-weight="600" letter-spacing="4" fill="#4B5563">GITHUB COMMITS → DEVLOGS INTELIGENTES</text>

  <g transform="translate(512,335)" font-family="Inter, Segoe UI, Arial, sans-serif" font-size="26" font-weight="700">
    <rect x="0" y="0" width="214" height="58" rx="29" fill="#F8FAFC" stroke="#D0D7DE"/>
    <text x="32" y="38" fill="#111827">Open Source</text>

    <rect x="244" y="0" width="188" height="58" rx="29" fill="#F8FAFC" stroke="#D0D7DE"/>
    <text x="276" y="38" fill="#111827">Automação</text>

    <rect x="462" y="0" width="98" height="58" rx="29" fill="#F8FAFC" stroke="#D0D7DE"/>
    <text x="495" y="38" fill="#111827">IA</text>
  </g>
</svg>